<svg xmlns="http://www.w3.org/2000/svg" xmlns:xlink="http://www.w3.org/1999/xlink" version="1.1" x="0px" y="0px" viewBox="0 0 32 40" style="enable-background:new 0 0 32 32;" xml:space="preserve"><g><path d="M29.7451,17.4043c-0.0859-0.0957-2.2432-2.4136-4.8975-2.252c0.0068-0.0986,0.0098-0.1973,0.0098-0.2954   c0-2.5474-2.1689-4.519-2.2617-4.6021c-0.3789-0.3398-0.9551-0.3398-1.334,0C21.1689,10.3379,19,12.3096,19,14.8569   c0,0.377,0.0469,0.7588,0.1416,1.1431H3c-0.5522,0-1,0.4478-1,1c0,6.7852,3.4487,11,9,11c5.0386,0,10.2305-3.2363,12.1748-7.4121   C23.835,20.8618,24.4932,21,25.1426,21c2.5488,0,4.5195-2.1694,4.6025-2.2617C30.085,18.3584,30.085,17.7842,29.7451,17.4043z    M7.5,22C6.6729,22,6,21.3271,6,20.5S6.6729,19,7.5,19S9,19.6729,9,20.5S8.3271,22,7.5,22z"/><g><rect x="3" y="12" width="3" height="3"/></g><g><rect x="7" y="12" width="3" height="3"/></g><g><rect x="7" y="8" width="3" height="3"/></g><g><rect x="11" y="8" width="3" height="3"/></g><g><rect x="11" y="4" width="3" height="3"/></g><g><rect x="11" y="12" width="3" height="3"/></g><g><rect x="15" y="12" width="3" height="3"/></g></g><text x="0" y="47" fill="#000000" font-size="5px" font-weight="bold" font-family="'Helvetica Neue', Helvetica, Arial-Unicode, Arial, Sans-serif">Created by M. Oki Orlando</text><text x="0" y="52" fill="#000000" font-size="5px" font-weight="bold" font-family="'Helvetica Neue', Helvetica, Arial-Unicode, Arial, Sans-serif">from the Noun Project</text></svg>