<?xml version="1.0" encoding="UTF-8" standalone="no"?>
<!DOCTYPE svg PUBLIC "-//W3C//DTD SVG 1.1//EN" "http://www.w3.org/Graphics/SVG/1.1/DTD/svg11.dtd">
<svg width="100%" height="100%" viewBox="0 0 31 31" version="1.1" xmlns="http://www.w3.org/2000/svg" xmlns:xlink="http://www.w3.org/1999/xlink" xml:space="preserve" xmlns:serif="http://www.serif.com/" style="fill-rule:evenodd;clip-rule:evenodd;stroke-linecap:round;stroke-linejoin:round;stroke-miterlimit:1.5;">
    <g id="Artboard1" transform="matrix(1,0,0,1,-0.172034,-0.00430878)">
        <rect x="0.172" y="0.004" width="30.662" height="30.662" style="fill:none;"/>
        <g transform="matrix(1,0,0,1,0.172034,0.00430878)">
            <path d="M29.745,17.404C29.659,17.309 27.502,14.991 24.848,15.152C24.854,15.054 24.857,14.955 24.857,14.857C24.857,12.31 22.688,10.338 22.596,10.255C22.217,9.915 21.641,9.915 21.262,10.255C21.169,10.338 19,12.31 19,14.857C19,15.234 19.047,15.616 19.142,16L3,16C2.448,16 2,16.448 2,17C2,23.785 5.449,28 11,28C16.039,28 21.231,24.764 23.175,20.588C23.835,20.862 24.493,21 25.143,21C27.691,21 29.662,18.831 29.745,18.738C30.085,18.358 30.085,17.784 29.745,17.404ZM7.5,22C6.673,22 6,21.327 6,20.5C6,19.673 6.673,19 7.5,19C8.327,19 9,19.673 9,20.5C9,21.327 8.327,22 7.5,22Z" style="fill-rule:nonzero;"/>
            <g>
                <rect x="3" y="12" width="3" height="3"/>
            </g>
            <g>
                <rect x="7" y="12" width="3" height="3"/>
            </g>
            <g>
                <rect x="7" y="8" width="3" height="3"/>
            </g>
            <g>
                <rect x="11" y="8" width="3" height="3"/>
            </g>
            <g>
                <rect x="11" y="4" width="3" height="3"/>
            </g>
            <g>
                <rect x="11" y="12" width="3" height="3"/>
            </g>
            <g>
                <rect x="15" y="12" width="3" height="3"/>
            </g>
        </g>
        <g id="Layer1" transform="matrix(1,0,0,1,0.172034,0.00430878)">
            <g transform="matrix(1,0,0,1,-0.153529,-3.74229)">
                <circle cx="24.856" cy="28.514" r="5.401" style="fill:rgb(235,235,235);stroke:rgb(139,86,86);stroke-width:0.5px;"/>
            </g>
            <g transform="matrix(1,0,0,1,3.92439,17.7431)">
                <g transform="matrix(5.82942,0,0,5.82942,25.0177,8.81123)">
                </g>
                <text x="16.268px" y="8.811px" style="font-family:'Aeroko-Regular', 'Aeroko', sans-serif;font-size:5.829px;fill:rgb(69,111,90);">My</text>
            </g>
        </g>
    </g>
</svg>
