<?xml version="1.0" encoding="UTF-8" standalone="no"?>
<!DOCTYPE svg PUBLIC "-//W3C//DTD SVG 1.1//EN" "http://www.w3.org/Graphics/SVG/1.1/DTD/svg11.dtd">
<svg width="100%" height="100%" viewBox="0 0 458 458" version="1.1" xmlns="http://www.w3.org/2000/svg" xmlns:xlink="http://www.w3.org/1999/xlink" xml:space="preserve" xmlns:serif="http://www.serif.com/" style="fill-rule:evenodd;clip-rule:evenodd;stroke-linejoin:round;stroke-miterlimit:2;">
    <g id="Colors">
        <rect x="181.291" y="73.276" width="191.264" height="122.27" style="fill:rgb(234,154,154);"/>
        <g transform="matrix(1,0,0,1.06087,1.98958,151.959)">
            <rect x="181.291" y="73.276" width="191.264" height="122.27" style="fill:white;"/>
        </g>
        <g transform="matrix(0.978795,0,0,1.08867,8.7205,147.239)">
            <rect x="181.291" y="73.276" width="191.264" height="122.27" style="fill:rgb(234,154,154);"/>
        </g>
        <g transform="matrix(0.978795,0,0,0.178096,5.73222,215.372)">
            <rect x="181.291" y="73.276" width="191.264" height="122.27" style="fill:rgb(234,154,154);"/>
        </g>
        <g transform="matrix(1.06348,0,0,0.178096,-12.1518,187.252)">
            <rect x="181.291" y="73.276" width="191.264" height="122.27" style="fill:rgb(218,89,89);"/>
        </g>
        <g transform="matrix(0.978795,0,0,0.628745,4.57988,237.387)">
            <rect x="181.291" y="73.276" width="191.264" height="122.27" style="fill:rgb(234,154,154);"/>
        </g>
        <rect x="204.434" y="99.999" width="14.578" height="21.545" style="fill:white;"/>
        <g transform="matrix(1,0,0,1,43.6455,1.87695)">
            <rect x="204.434" y="99.999" width="14.578" height="21.545" style="fill:white;"/>
        </g>
        <g transform="matrix(1,0,0,1,85.7793,0.920898)">
            <rect x="204.434" y="99.999" width="14.578" height="21.545" style="fill:white;"/>
        </g>
        <g transform="matrix(1,0,0,1,128.951,0.927734)">
            <rect x="204.434" y="99.999" width="14.578" height="21.545" style="fill:white;"/>
        </g>
        <g transform="matrix(1,0,0,1,126.931,49.3223)">
            <rect x="204.434" y="99.999" width="14.578" height="21.545" style="fill:white;"/>
        </g>
        <g transform="matrix(1,0,0,1,86.708,49.874)">
            <rect x="204.434" y="99.999" width="14.578" height="21.545" style="fill:white;"/>
        </g>
        <g transform="matrix(1,0,0,1,43.4824,50.4932)">
            <rect x="204.434" y="99.999" width="14.578" height="21.545" style="fill:rgb(212,210,9);"/>
        </g>
        <g transform="matrix(1,0,0,1,1.27832,50.4277)">
            <rect x="204.434" y="99.999" width="14.578" height="21.545" style="fill:white;"/>
        </g>
        <g transform="matrix(1,0,0,1,0.741862,149.334)">
            <rect x="204.434" y="99.999" width="14.578" height="21.545" style="fill:white;"/>
        </g>
        <g transform="matrix(1,0,0,1,43.057,150.355)">
            <rect x="204.434" y="99.999" width="14.578" height="21.545" style="fill:white;"/>
        </g>
        <g transform="matrix(1,0,0,1,85.3877,149.144)">
            <rect x="204.434" y="99.999" width="14.578" height="21.545" style="fill:white;"/>
        </g>
        <g transform="matrix(1,0,0,1,128.505,148.248)">
            <rect x="204.434" y="99.999" width="14.578" height="21.545" style="fill:white;"/>
        </g>
        <g transform="matrix(1,0,0,1,1.24967,197.631)">
            <rect x="204.434" y="99.999" width="14.578" height="21.545" style="fill:white;"/>
        </g>
        <g transform="matrix(1,0,0,1,41.7002,196.67)">
            <rect x="204.434" y="99.999" width="14.578" height="21.545" style="fill:white;"/>
        </g>
        <g transform="matrix(14.3514,0,0,0.849152,-2763.16,-35.4609)">
            <rect x="204.434" y="99.999" width="14.578" height="21.545" style="fill:rgb(153,185,246);"/>
        </g>
        <g transform="matrix(2.35155,0,0,2.97672,-177.875,-1.77856)">
            <rect x="204.434" y="99.999" width="14.578" height="21.545" style="fill:rgb(135,48,48);"/>
        </g>
    </g>
    <g id="Colors-Arbres" serif:id="Colors Arbres">
        <g transform="matrix(0.719429,0,0,1.10587,25.4154,-28.6635)">
            <rect x="74.316" y="140.202" width="30.56" height="159.221" style="fill:rgb(89,218,150);"/>
        </g>
        <g transform="matrix(0.719429,0,0,1.08611,38.0482,-24.0315)">
            <rect x="74.316" y="140.202" width="30.56" height="159.221" style="fill:rgb(89,218,150);"/>
        </g>
        <g transform="matrix(0.719429,0,0,0.543688,7.37633,100.82)">
            <rect x="74.316" y="140.202" width="30.56" height="159.221" style="fill:rgb(89,218,150);"/>
        </g>
        <g transform="matrix(0.719429,0,0,0.543688,12.5599,131.299)">
            <rect x="74.316" y="140.202" width="30.56" height="159.221" style="fill:rgb(89,218,150);"/>
        </g>
        <g transform="matrix(0.787367,0,0,0.272348,10.5071,103.273)">
            <rect x="74.316" y="140.202" width="30.56" height="159.221" style="fill:rgb(89,218,150);"/>
        </g>
        <g transform="matrix(0.787367,0,0,0.272348,40.5384,105.703)">
            <rect x="74.316" y="140.202" width="30.56" height="159.221" style="fill:rgb(89,218,150);"/>
        </g>
        <g transform="matrix(0.787367,0,0,0.272348,6.53448,123.337)">
            <rect x="74.316" y="140.202" width="30.56" height="159.221" style="fill:rgb(89,218,150);"/>
        </g>
        <g transform="matrix(1.16635,0,0,0.928507,37.1406,26.8206)">
            <rect x="74.316" y="140.202" width="30.56" height="159.221" style="fill:rgb(61,135,97);"/>
        </g>
        <g transform="matrix(0.350797,0,0,0.184563,89.3976,142.455)">
            <rect x="74.316" y="140.202" width="30.56" height="159.221" style="fill:rgb(61,135,97);"/>
        </g>
        <g transform="matrix(1.16635,0,0,0.752627,22.4898,76.1467)">
            <rect x="74.316" y="140.202" width="30.56" height="159.221" style="fill:rgb(61,135,97);"/>
        </g>
        <g transform="matrix(0.379012,0,0,0.865746,130.859,43.7207)">
            <rect x="74.316" y="140.202" width="30.56" height="159.221" style="fill:rgb(61,135,97);"/>
        </g>
        <g transform="matrix(0.305513,0,0,0.747578,147.314,71.8374)">
            <rect x="74.316" y="140.202" width="30.56" height="159.221" style="fill:rgb(61,135,97);"/>
        </g>
        <g transform="matrix(0.305513,0,0,0.268803,154.535,206.692)">
            <rect x="74.316" y="140.202" width="30.56" height="159.221" style="fill:rgb(61,135,97);"/>
        </g>
        <g transform="matrix(0.305513,0,0,0.268803,79.7457,205.539)">
            <rect x="74.316" y="140.202" width="30.56" height="159.221" style="fill:rgb(61,135,97);"/>
        </g>
    </g>
    <rect x="57.133" y="363.797" width="339.414" height="20.602" style="fill:rgb(61,108,135);"/>
    <g id="noun-apartments-1347572.svg" transform="matrix(4.31253,0,0,4.31253,226.069,270.824)">
        <g transform="matrix(1,0,0,1,-50,-62.5)">
            <path d="M90.125,83.964C90.125,83.412 89.678,82.964 89.125,82.964L85.279,82.964L85.279,53L86.67,53C87.223,53 87.67,52.552 87.67,52L87.67,45.583C87.67,45.031 87.223,44.583 86.67,44.583L85.279,44.583L85.279,17.012L86.633,17.012C87.186,17.012 87.633,16.564 87.633,16.012L87.633,11C87.633,10.448 87.186,10 86.633,10L36.883,10C36.33,10 35.883,10.448 35.883,11L35.883,16.011C35.883,16.563 36.33,17.011 36.883,17.011L38.237,17.011L38.237,38.95C36.754,36.576 34.002,34.995 30.866,34.995C29.695,34.995 28.579,35.217 27.562,35.619C25.742,30.327 22.967,27.307 19.876,27.307C14.408,27.307 10.126,36.99 10.126,49.35C10.126,59.201 11.152,70.444 18.876,71.331L18.876,82.965L11.126,82.965C10.573,82.965 10.126,83.413 10.126,83.965L10.126,89C10.126,89.552 10.573,90 11.126,90L89.126,90C89.679,90 90.126,89.552 90.126,89L90.126,83.964L90.125,83.964ZM83.279,82.964L77.362,82.964L77.362,72.15C77.362,69.054 74.843,66.535 71.747,66.535C68.651,66.535 66.133,69.054 66.133,72.15L66.133,82.964L40.236,82.964L40.236,67.535C40.236,67.502 40.22,67.474 40.217,67.442C41.605,65.661 42.434,63.476 42.434,61.11C42.434,58.951 41.753,56.866 40.464,55.081C40.367,54.947 40.267,54.815 40.164,54.685C40.395,54.135 40.566,53.572 40.68,52.999L83.278,52.999L83.278,82.964L83.279,82.964ZM75.362,82.964L68.133,82.964L68.133,72.15C68.133,70.157 69.754,68.535 71.747,68.535C73.74,68.535 75.362,70.157 75.362,72.15L75.362,82.964ZM31.926,82.964L31.891,71.862C34.289,71.664 36.481,70.785 38.237,69.427L38.237,82.964L31.926,82.964ZM41.739,46.583L41.739,51L40.835,51C40.779,49.438 40.303,47.921 39.46,46.583L41.739,46.583ZM76.765,51L76.765,46.583L80.27,46.583L80.27,51L76.765,51ZM74.765,51L71.261,51L71.261,46.583L74.765,46.583L74.765,51ZM69.261,51L65.757,51L65.757,46.583L69.261,46.583L69.261,51ZM63.757,51L60.252,51L60.252,46.583L63.757,46.583L63.757,51ZM58.252,51L54.748,51L54.748,46.583L58.252,46.583L58.252,51ZM52.748,51L49.244,51L49.244,46.583L52.748,46.583L52.748,51ZM47.244,51L43.739,51L43.739,46.583L47.244,46.583L47.244,51ZM85.67,51L82.27,51L82.27,46.583L85.67,46.583L85.67,51ZM37.883,12L85.633,12L85.633,15.011L37.883,15.011L37.883,12ZM83.279,17.012L83.279,44.584L40.236,44.584L40.236,17.012L83.279,17.012ZM37.39,42.679C37.395,42.779 37.398,42.879 37.398,42.98C37.398,43.837 37.198,44.672 36.802,45.461C36.616,45.833 36.68,46.281 36.961,46.586C38.178,47.907 38.849,49.585 38.849,51.31C38.849,52.374 38.597,53.412 38.099,54.393C37.911,54.761 37.971,55.207 38.247,55.514C38.459,55.75 38.658,55.997 38.844,56.253C39.885,57.694 40.435,59.374 40.435,61.11C40.435,65.646 36.683,69.39 31.885,69.859L31.871,65.307L35.237,61.941C35.628,61.55 35.628,60.918 35.237,60.527C34.846,60.136 34.214,60.136 33.823,60.527L31.862,62.488L31.85,58.704C31.848,58.153 31.401,57.707 30.85,57.707L30.847,57.707C30.294,57.709 29.848,58.158 29.85,58.71L29.862,62.349L28.04,60.527C27.649,60.136 27.017,60.136 26.626,60.527C26.235,60.918 26.235,61.55 26.626,61.941L29.871,65.186L29.886,69.863C25.068,69.41 21.297,65.656 21.297,61.108C21.297,59.071 22.074,57.083 23.485,55.51C23.76,55.203 23.819,54.758 23.633,54.39C23.135,53.408 22.883,52.37 22.883,51.307C22.883,49.583 23.553,47.905 24.77,46.583C25.051,46.278 25.115,45.83 24.929,45.459C24.533,44.667 24.333,43.833 24.333,42.977C24.333,39.677 27.264,36.992 30.866,36.992C34.354,36.995 37.22,39.493 37.39,42.679ZM12.125,49.35C12.125,37.361 16.132,29.307 19.875,29.307C22.048,29.307 24.287,32.086 25.777,36.586C23.691,38.043 22.332,40.363 22.332,42.981C22.332,43.928 22.51,44.853 22.862,45.74C21.581,47.346 20.882,49.301 20.882,51.311C20.882,52.472 21.111,53.604 21.566,54.688C20.097,56.541 19.295,58.798 19.295,61.112C19.295,63.903 20.445,66.443 22.314,68.362C21.642,69.145 21.32,69.395 19.875,69.395C14.516,69.393 12.125,63.211 12.125,49.35ZM20.875,71.332C22.36,71.155 23.052,70.556 23.827,69.663C25.537,70.892 27.619,71.686 29.89,71.865L29.925,82.964L20.874,82.964L20.874,71.332L20.875,71.332ZM88.125,88L12.125,88L12.125,84.964L88.125,84.964L88.125,88Z" style="fill-rule:nonzero;"/>
            <path d="M74.388,63.77L78.641,63.77C79.194,63.77 79.641,63.322 79.641,62.77L79.641,59.127C79.641,57.403 78.239,56.001 76.515,56.001C74.79,56.001 73.388,57.403 73.388,59.127L73.388,62.77C73.388,63.322 73.835,63.77 74.388,63.77ZM75.388,59.127C75.388,58.506 75.894,58.001 76.515,58.001C77.136,58.001 77.641,58.506 77.641,59.127L77.641,61.77L75.388,61.77L75.388,59.127Z" style="fill-rule:nonzero;"/>
            <path d="M74.283,40.584L78.536,40.584C79.089,40.584 79.536,40.136 79.536,39.584L79.536,35.982C79.536,34.258 78.134,32.856 76.41,32.856C74.685,32.856 73.283,34.258 73.283,35.982L73.283,39.584C73.283,40.136 73.73,40.584 74.283,40.584ZM75.283,35.982C75.283,35.361 75.789,34.856 76.41,34.856C77.031,34.856 77.536,35.361 77.536,35.982L77.536,38.584L75.283,38.584L75.283,35.982Z" style="fill-rule:nonzero;"/>
            <path d="M64.509,63.77L68.762,63.77C69.315,63.77 69.762,63.322 69.762,62.77L69.762,59.127C69.762,57.403 68.36,56.001 66.635,56.001C64.911,56.001 63.509,57.403 63.509,59.127L63.509,62.77C63.509,63.322 63.956,63.77 64.509,63.77ZM65.509,59.127C65.509,58.506 66.014,58.001 66.635,58.001C67.256,58.001 67.762,58.506 67.762,59.127L67.762,61.77L65.509,61.77L65.509,59.127Z" style="fill-rule:nonzero;"/>
            <path d="M64.404,40.584L68.657,40.584C69.21,40.584 69.657,40.136 69.657,39.584L69.657,35.982C69.657,34.258 68.255,32.856 66.53,32.856C64.806,32.856 63.404,34.258 63.404,35.982L63.404,39.584C63.404,40.136 63.852,40.584 64.404,40.584ZM65.404,35.982C65.404,35.361 65.909,34.856 66.53,34.856C67.151,34.856 67.657,35.361 67.657,35.982L67.657,38.584L65.404,38.584L65.404,35.982Z" style="fill-rule:nonzero;"/>
            <path d="M54.629,63.77L58.882,63.77C59.435,63.77 59.882,63.322 59.882,62.77L59.882,59.127C59.882,57.403 58.48,56.001 56.756,56.001C55.031,56.001 53.629,57.403 53.629,59.127L53.629,62.77C53.629,63.322 54.076,63.77 54.629,63.77ZM55.629,59.127C55.629,58.506 56.135,58.001 56.756,58.001C57.377,58.001 57.882,58.506 57.882,59.127L57.882,61.77L55.629,61.77L55.629,59.127Z" style="fill-rule:nonzero;"/>
            <path d="M54.524,40.584L58.777,40.584C59.33,40.584 59.777,40.136 59.777,39.584L59.777,35.982C59.777,34.258 58.375,32.856 56.651,32.856C54.926,32.856 53.524,34.258 53.524,35.982L53.524,39.584C53.524,40.136 53.972,40.584 54.524,40.584ZM55.524,35.982C55.524,35.361 56.03,34.856 56.651,34.856C57.272,34.856 57.777,35.361 57.777,35.982L57.777,38.584L55.524,38.584L55.524,35.982Z" style="fill-rule:nonzero;"/>
            <path d="M44.75,63.77L49.003,63.77C49.556,63.77 50.003,63.322 50.003,62.77L50.003,59.127C50.003,57.403 48.601,56.001 46.876,56.001C45.152,56.001 43.75,57.403 43.75,59.127L43.75,62.77C43.75,63.322 44.197,63.77 44.75,63.77ZM45.75,59.127C45.75,58.506 46.255,58.001 46.876,58.001C47.497,58.001 48.003,58.506 48.003,59.127L48.003,61.77L45.75,61.77L45.75,59.127Z" style="fill-rule:nonzero;"/>
            <path d="M54.629,75.152L58.882,75.152C59.435,75.152 59.882,74.704 59.882,74.152L59.882,70.51C59.882,68.786 58.48,67.384 56.756,67.384C55.031,67.384 53.629,68.786 53.629,70.51L53.629,74.152C53.629,74.705 54.076,75.152 54.629,75.152ZM55.629,70.51C55.629,69.889 56.135,69.384 56.756,69.384C57.377,69.384 57.882,69.889 57.882,70.51L57.882,73.152L55.629,73.152L55.629,70.51Z" style="fill-rule:nonzero;"/>
            <path d="M44.75,75.152L49.003,75.152C49.556,75.152 50.003,74.704 50.003,74.152L50.003,70.51C50.003,68.786 48.601,67.384 46.876,67.384C45.152,67.384 43.75,68.786 43.75,70.51L43.75,74.152C43.75,74.705 44.197,75.152 44.75,75.152ZM45.75,70.51C45.75,69.889 46.255,69.384 46.876,69.384C47.497,69.384 48.003,69.889 48.003,70.51L48.003,73.152L45.75,73.152L45.75,70.51Z" style="fill-rule:nonzero;"/>
            <path d="M44.646,40.584L48.899,40.584C49.452,40.584 49.899,40.136 49.899,39.584L49.899,35.982C49.899,34.258 48.497,32.856 46.772,32.856C45.048,32.856 43.646,34.258 43.646,35.982L43.646,39.584C43.646,40.136 44.093,40.584 44.646,40.584ZM45.646,35.982C45.646,35.361 46.151,34.856 46.772,34.856C47.393,34.856 47.899,35.361 47.899,35.982L47.899,38.584L45.646,38.584L45.646,35.982Z" style="fill-rule:nonzero;"/>
            <path d="M74.283,29.306L78.536,29.306C79.089,29.306 79.536,28.858 79.536,28.306L79.536,24.704C79.536,22.98 78.134,21.578 76.41,21.578C74.685,21.578 73.283,22.98 73.283,24.704L73.283,28.306C73.283,28.858 73.73,29.306 74.283,29.306ZM75.283,24.704C75.283,24.083 75.789,23.578 76.41,23.578C77.031,23.578 77.536,24.083 77.536,24.704L77.536,27.306L75.283,27.306L75.283,24.704Z" style="fill-rule:nonzero;"/>
            <path d="M64.404,29.306L68.657,29.306C69.21,29.306 69.657,28.858 69.657,28.306L69.657,24.704C69.657,22.98 68.255,21.578 66.53,21.578C64.806,21.578 63.404,22.98 63.404,24.704L63.404,28.306C63.404,28.858 63.852,29.306 64.404,29.306ZM65.404,24.704C65.404,24.083 65.909,23.578 66.53,23.578C67.151,23.578 67.657,24.083 67.657,24.704L67.657,27.306L65.404,27.306L65.404,24.704Z" style="fill-rule:nonzero;"/>
            <path d="M54.524,29.306L58.777,29.306C59.33,29.306 59.777,28.858 59.777,28.306L59.777,24.704C59.777,22.98 58.375,21.578 56.651,21.578C54.926,21.578 53.524,22.98 53.524,24.704L53.524,28.306C53.524,28.858 53.972,29.306 54.524,29.306ZM55.524,24.704C55.524,24.083 56.03,23.578 56.651,23.578C57.272,23.578 57.777,24.083 57.777,24.704L57.777,27.306L55.524,27.306L55.524,24.704Z" style="fill-rule:nonzero;"/>
            <path d="M44.646,29.306L48.899,29.306C49.452,29.306 49.899,28.858 49.899,28.306L49.899,24.704C49.899,22.98 48.497,21.578 46.772,21.578C45.048,21.578 43.646,22.98 43.646,24.704L43.646,28.306C43.646,28.858 44.093,29.306 44.646,29.306ZM45.646,24.704C45.646,24.083 46.151,23.578 46.772,23.578C47.393,23.578 47.899,24.083 47.899,24.704L47.899,27.306L45.646,27.306L45.646,24.704Z" style="fill-rule:nonzero;"/>
        </g>
    </g>
</svg>
